<svg width="31" height="175" viewBox="0 0 31 175" fill="none" xmlns="http://www.w3.org/2000/svg">
<path d="M7.64466 54.7727C7.48415 53.4091 7.16311 52.2727 6.68155 51.3636C6.2 50.4545 5.73851 49.8485 5.29709 49.5455C5.37735 48.7879 5.37735 47.9545 5.29709 47.0455C5.25696 46.2879 5.33722 45.3788 5.53786 44.3182C5.41748 44.1667 5.29709 43.9394 5.1767 43.6364C5.05631 43.3333 4.93592 43.0303 4.81554 42.7273C4.65502 42.1212 4.37411 41.4394 3.97282 40.6818C3.93269 37.6515 4.17346 34.8485 4.69515 32.2727C5.1767 29.5455 5.8589 27.5758 6.74175 26.3636C7.30356 25.6061 7.94563 25.2273 8.66796 25.2273C9.35016 25.2273 9.73139 24.2424 9.81165 22.2727C10.4537 21.9697 11.2563 21.2879 12.2194 20.2273C13.1424 19.1667 14.0453 18.0303 14.9282 16.8182C15.811 15.6061 16.5333 14.9242 17.0951 14.7727C17.7773 13.5606 18.0783 11.4394 17.9981 8.40909C17.8777 5.37879 17.1955 2.95455 15.9515 1.13636C15.9113 1.74242 15.7709 2.04546 15.5301 2.04546C15.3696 2.04546 15.2492 2.42424 15.1689 3.18182C15.1288 3.0303 15.0887 2.87879 15.0485 2.72728C15.0084 2.42424 14.9683 2.04545 14.9282 1.59092C14.888 0.833341 14.8278 0.303035 14.7476 0C14.4667 0.606062 14.3262 1.13637 14.3262 1.59092C14.3262 2.5 14.3062 3.18182 14.266 3.63637C14.0252 3.33333 13.7845 2.72727 13.5437 1.81819C13.3029 0.909097 13.1424 0.303035 13.0621 0C13.022 1.06061 12.7612 2.04546 12.2796 2.95455C11.7981 3.71212 11.2563 4.4697 10.6544 5.22727C10.0524 5.83333 9.57088 6.4394 9.20971 7.04546C9.00906 8.10606 8.74822 8.86363 8.42719 9.31818C8.10615 9.77273 7.78511 10.0758 7.46408 10.2273C7.14304 10.9848 6.80195 11.8182 6.44078 12.7273C6.03949 13.6364 5.63819 14.697 5.23689 15.9091C4.8356 17.1212 4.45437 18.2576 4.0932 19.3182C3.73204 20.3788 3.39094 21.4394 3.0699 22.5C2.98965 22.803 2.86926 23.4848 2.70874 24.5455C2.50809 25.6061 2.36764 26.5909 2.28738 27.5C2.20712 29.9242 1.94628 32.197 1.50486 34.3182C1.0233 36.2879 0.822657 38.4848 0.902916 40.9091C0.782528 41.3636 0.642075 41.2879 0.481556 40.6818C0.321037 40.0758 0.160519 40.2273 0 41.1364C0 42.3485 0.140455 43.3333 0.421362 44.0909C0.66214 44.8485 0.922979 44.8485 1.20389 44.0909C1.20389 43.4848 1.0835 42.7273 0.842718 41.8182C1.12362 41.3636 1.32427 40.9848 1.44466 40.6818C1.56505 40.2273 1.7657 39.5455 2.0466 38.6364L2.22718 41.8182C2.26731 42.4242 2.30745 43.0303 2.34758 43.6364C2.38771 44.2424 2.4479 44.9242 2.52816 45.6818C2.56829 46.1364 2.52816 46.6667 2.40777 47.2727C2.28738 47.7273 2.16699 47.9545 2.0466 47.9545C2.20712 48.4091 2.4479 48.6364 2.76893 48.6364C3.1301 48.6364 3.37087 48.7121 3.49126 48.8636C3.85243 49.1667 4.29385 49.8485 4.81554 50.9091C5.33722 51.8182 5.69839 53.1061 5.89903 54.7727C6.13981 54.3182 6.44078 54.0909 6.80194 54.0909C7.16311 54.0909 7.44402 54.3182 7.64466 54.7727ZM12.3398 5.68183L11.7379 5C11.9786 3.93939 12.2395 3.71212 12.5204 4.31818C12.5605 4.62122 12.5806 5 12.5806 5.45454C12.5806 6.0606 12.5003 6.13636 12.3398 5.68183ZM10.2932 13.4091C10.0524 13.2576 9.89191 12.7273 9.81165 11.8182C9.81165 11.3636 9.77152 10.8333 9.69126 10.2273C9.81165 10.2273 9.99223 10 10.233 9.54545C10.3935 9.39394 10.5139 9.31818 10.5942 9.31818C10.6744 9.16667 10.7547 9.09091 10.835 9.09091C10.7547 10.303 10.7748 11.2121 10.8951 11.8182C11.0557 11.8182 11.0155 11.9697 10.7748 12.2727C10.5741 12.4242 10.4136 12.803 10.2932 13.4091ZM5.05631 25.4545L4.93592 24.3182L6.44078 21.3636L6.50097 22.5L5.05631 25.4545ZM2.70874 52.5C2.86926 53.1061 2.94952 52.9545 2.94952 52.0455V50.9091C2.58835 50.4545 2.28738 50.7576 2.0466 51.8182L2.70874 52.5ZM21.7903 175C23.1547 175 24.3987 175 25.5223 175C26.6861 175 27.91 173.561 29.1942 170.682L29.3146 167.5C29.1942 167.5 29.0537 167.5 28.8932 167.5C28.7327 167.651 28.5722 167.803 28.4117 167.955C28.211 168.106 28.0104 168.258 27.8097 168.409C27.6492 168.561 27.4686 168.712 27.268 168.864C26.0641 169.621 24.8401 169.773 23.5961 169.318C22.3521 169.015 21.1482 168.485 19.9845 167.727C19.8239 167.576 19.5631 167.727 19.2019 168.182C19.0013 168.333 18.8207 168.485 18.6602 168.636C18.4595 168.788 18.2589 168.939 18.0583 169.091C18.0181 169.091 17.9981 169.015 17.9981 168.864C17.9981 168.409 18.0181 168.106 18.0583 167.955C17.1754 167.197 16.3528 166.061 15.5903 164.545C14.8278 163.182 14.1055 161.97 13.4233 160.909C12.701 159.848 11.9987 159.621 11.3165 160.227C11.2362 159.621 11.2162 158.939 11.2563 158.182C11.2964 157.424 11.2764 156.591 11.1961 155.682C11.1159 156.894 10.7948 157.5 10.233 157.5C10.1528 157.197 10.1126 156.667 10.1126 155.909C10.1528 155.455 10.1728 155 10.1728 154.545C10.1728 154.091 10.1728 153.636 10.1728 153.182L9.99224 152.5C9.91198 152.348 9.81165 152.121 9.69126 151.818C9.57088 151.515 9.43042 151.212 9.26991 150.909C9.02913 150.152 8.74822 149.924 8.42719 150.227C8.34693 149.47 8.28673 148.636 8.2466 147.727C8.20647 146.818 8.26667 145.909 8.42719 145H8.2466C8.12621 145 8.00583 145.227 7.88544 145.682C7.76505 145.076 7.82524 144.318 8.06602 143.409C7.82524 142.652 7.56441 141.515 7.2835 140C7.00259 138.485 6.84208 136.97 6.80194 135.455C6.84208 134.848 6.86214 134.167 6.86214 133.409C6.86214 132.651 6.86214 131.818 6.86214 130.909C6.9424 129.091 7.06278 127.652 7.2233 126.591C7.70485 123.712 8.40712 121.061 9.3301 118.636C10.2531 116.212 11.2362 114.242 12.2796 112.727C13.2828 111.061 14.1858 110 14.9884 109.545C15.0285 109.091 15.0485 108.712 15.0485 108.409C15.0485 107.955 15.0686 107.652 15.1087 107.5C15.1489 107.348 15.2091 106.742 15.2893 105.682C15.2492 105.227 15.2091 104.545 15.1689 103.636C15.0887 102.727 15.0686 101.818 15.1087 100.909C13.9049 97.5758 12.6408 94.8485 11.3165 92.7273C9.99223 90.4545 8.44725 89.0152 6.68155 88.4091L6.74175 87.7273C6.98253 87.4242 7.20324 87.2727 7.40388 87.2727C7.72492 87.2727 7.94563 87.197 8.06602 87.0454C8.14628 86.7424 8.2466 86.3636 8.36699 85.9091C8.48738 85.4545 8.62783 85.0758 8.78835 84.7727C8.94887 84.4697 9.10939 84.1667 9.26991 83.8636C9.43042 83.4091 9.59094 82.9545 9.75146 82.5C9.91198 81.4394 10.0324 80.1515 10.1126 78.6364C10.1929 77.4242 10.3935 76.6667 10.7146 76.3636C10.7547 76.0606 10.7948 75.6061 10.835 75C10.835 74.3939 10.8149 73.7121 10.7748 72.9545C10.7346 72.197 10.7346 71.5151 10.7748 70.9091C10.7748 70.1515 10.7948 69.4697 10.835 68.8636C10.4738 68.5606 10.2129 67.9545 10.0524 67.0454C10.2932 65.6818 10.3133 64.2424 10.1126 62.7273C9.91198 61.0606 9.59094 59.697 9.14952 58.6364C8.70809 57.4242 8.28673 56.8182 7.88544 56.8182C7.80518 57.5757 7.70486 58.3333 7.58447 59.0909C7.46408 59.8485 7.26343 60.3788 6.98253 60.6818C7.38382 61.2879 7.80518 62.0455 8.2466 62.9545C8.6479 63.8636 8.90874 65 9.02913 66.3636C9.14952 67.5758 8.989 69.1667 8.54757 71.1364C8.38705 69.0152 8.02589 67.0455 7.46408 65.2273C6.86214 63.4091 6.2 61.5909 5.47767 59.7727C4.71521 57.9545 4.03301 56.0606 3.43107 54.0909C3.63172 55.4545 3.7521 56.6667 3.79223 57.7273C3.91262 59.0909 4.11327 59.8485 4.39418 60C4.35405 60.4546 4.33398 60.9091 4.33398 61.3636C4.29385 61.8182 4.27379 62.2727 4.27379 62.7273V65.4545C5.07638 64.3939 5.83884 64.4697 6.56117 65.6818C7.24337 66.8939 7.74499 68.7121 8.06602 71.1364C8.38706 73.5606 8.42719 76.2879 8.18641 79.3182C7.86537 80.0758 7.56441 80.8333 7.2835 81.5909C6.96246 82.3485 6.64142 83.0303 6.32039 83.6364C5.99935 84.2424 5.69839 84.9242 5.41748 85.6818C5.13657 86.2879 4.85567 86.9697 4.57476 87.7273C4.69515 89.0909 4.97606 90.3788 5.41748 91.5909C5.8589 92.6515 6.34045 93.3333 6.86214 93.6364C7.34369 93.7879 7.74499 93.1818 8.06602 91.8182C8.14628 92.4242 8.16635 92.9545 8.12622 93.4091C8.08609 93.8636 8.06602 94.4697 8.06602 95.2273C8.46732 95.3788 8.9288 96.2121 9.45049 97.7273C9.73139 98.4848 9.99223 99.1667 10.233 99.7727C10.4738 100.379 10.6945 100.909 10.8951 101.364C10.6142 102.273 10.3133 103.182 9.99224 104.091C9.6712 105 9.31003 105.985 8.90874 107.045C8.54757 108.106 8.20647 109.167 7.88544 110.227C7.52427 111.288 7.18317 112.424 6.86214 113.636C6.42071 115.303 6.13981 117.576 6.01942 120.455C5.8589 123.333 5.79871 126.136 5.83883 128.864C5.87897 131.591 5.93916 133.636 6.01942 135C6.17994 136.061 6.17994 137.424 6.01942 139.091C5.81877 140.606 5.91909 142.121 6.32039 143.636C6.32039 145.152 6.62136 146.894 7.2233 148.864C7.82524 150.985 8.22654 152.879 8.42719 154.545C8.90874 155.303 9.51068 156.97 10.233 159.545C10.9152 162.273 11.6375 163.939 12.4 164.545C12.6809 166.818 13.2828 168.03 14.2058 168.182C15.1288 168.485 15.9113 168.636 16.5534 168.636C16.9547 169.848 17.4563 170.985 18.0583 172.045C18.6201 173.106 19.0816 173.864 19.4427 174.318C19.6434 174.621 19.9243 174.697 20.2854 174.545C20.6065 174.545 20.9476 174.394 21.3087 174.091L21.7903 175ZM4.69515 63.6364C4.73528 61.8182 4.91586 61.0606 5.23689 61.3636L5.59806 62.7273C5.83884 63.6364 5.83884 63.9394 5.59806 63.6364H4.69515ZM10.1728 72.0455L9.81165 71.3636L10.0524 70L10.4136 70.6818L10.1728 72.0455ZM11.8583 99.3182C11.778 99.9242 11.6576 99.9242 11.4971 99.3182L11.1359 98.6364C10.8951 98.0303 10.855 97.5 11.0155 97.0454L11.2563 96.5909C11.457 96.2879 11.5974 96.4394 11.6777 97.0454C11.8382 97.9545 11.8984 98.7121 11.8583 99.3182ZM30.7592 168.182C30.9197 168.788 31 168.712 31 167.955V166.818C30.679 166.061 30.3981 166.288 30.1573 167.5L30.7592 168.182Z" fill="#E5B460"/>
</svg>
